<?xml version="1.0" encoding="UTF-8" standalone="no"?>
<!-- Created with Inkscape (http://www.inkscape.org/) -->

<svg
   version="1.1"
   id="svg6843"
   width="200.32001"
   height="200.32001"
   viewBox="0 0 200.32001 200.32001"
   sodipodi:docname="logo-inkscp.svg"
   inkscape:version="1.2.2 (b0a8486541, 2022-12-01)"
   xmlns:inkscape="http://www.inkscape.org/namespaces/inkscape"
   xmlns:sodipodi="http://sodipodi.sourceforge.net/DTD/sodipodi-0.dtd"
   xmlns="http://www.w3.org/2000/svg"
   xmlns:svg="http://www.w3.org/2000/svg">
  <defs
     id="defs6847">
    <linearGradient
       id="linearGradient8488"
       inkscape:swatch="solid">
      <stop
         style="stop-color:#000000;stop-opacity:1;"
         offset="0"
         id="stop8486" />
    </linearGradient>
  </defs>
  <sodipodi:namedview
     id="namedview6845"
     pagecolor="#ffffff"
     bordercolor="#000000"
     borderopacity="0.25"
     inkscape:showpageshadow="2"
     inkscape:pageopacity="0.0"
     inkscape:pagecheckerboard="0"
     inkscape:deskcolor="#d1d1d1"
     showgrid="false"
     inkscape:zoom="4"
     inkscape:cx="78.875"
     inkscape:cy="90.375"
     inkscape:window-width="1900"
     inkscape:window-height="1016"
     inkscape:window-x="10"
     inkscape:window-y="54"
     inkscape:window-maximized="0"
     inkscape:current-layer="g7463" />
  <g
     inkscape:groupmode="layer"
     inkscape:label="Image"
     id="g6849">
    <g
       id="g7463">
      <path
         style="fill:#fefefe;stroke-width:0.32;fill-opacity:0"
         d="M 0,100.16 V 0 H 100.16 200.32001 V 100.16 200.32001 H 100.16 0 Z m 88.640004,69.51689 c 2.276593,-0.92792 3.063761,-1.39996 3.134621,-1.87973 0.121348,-0.82156 -1.219404,-2.16829 -3.370176,-3.3852 -2.222867,-1.2577 -4.379005,-3.70412 -5.095472,-5.78148 -0.849328,-2.46258 -0.735824,-5.7427 0.275133,-7.95092 1.705209,-3.72467 4.52617,-5.72007 8.441923,-5.97136 4.432055,-0.28444 7.952865,1.60145 10.028757,5.37181 1.0685,1.94066 1.14385,2.26221 1.12484,4.8 -0.0112,1.496 -0.13705,3.59614 -0.27964,4.66697 -0.28093,2.10971 0.083,3.33303 0.99148,3.33303 0.80269,0 14.67977,-7.48568 18.28455,-9.86319 0.31592,-0.20836 -0.28916,-1.53776 -2.515,-5.52559 -1.61205,-2.88817 -3.862,-7.10661 -4.99989,-9.3743 -2.2326,-4.44936 -2.34219,-5.20213 -0.89538,-6.15011 0.81777,-0.53583 0.77821,-0.53624 7.07314,0.0729 3.14169,0.30403 5.32024,-0.48283 7.49309,-2.70641 1.34873,-1.38022 1.91269,-2.2614 2.36107,-3.68922 1.97103,-6.27644 -3.10254,-12.77973 -9.57928,-12.27868 -3.32784,0.25745 -5.96871,2.02625 -7.9945,5.35456 -1.8743,3.0794 -3.92618,4.38083 -5.39235,3.42017 -0.81158,-0.53177 -3.90449,-8.10961 -6.6856,-16.38017 -0.88775,-2.64 -1.712672,-4.91227 -1.833171,-5.04948 -0.462592,-0.52674 -18.191383,6.02396 -19.41546,7.17393 -0.413978,0.38891 -0.752685,1.02709 -0.752685,1.41818 0,0.80625 1.638547,2.37598 3.448896,3.30405 1.638583,0.84 3.490426,2.76255 4.50144,4.67332 0.74376,1.40566 0.846589,1.96924 0.846589,4.64 0,2.68145 -0.101517,3.23276 -0.860736,4.67438 -1.293811,2.45671 -2.320442,3.50784 -4.480122,4.58705 -1.700054,0.84953 -2.29968,0.97853 -4.547178,0.97831 -2.194694,-2.1e-4 -2.881238,-0.1406 -4.508889,-0.92203 -2.380935,-1.14309 -4.028689,-2.83302 -5.144221,-5.27591 -0.817316,-1.78982 -0.846631,-2.03072 -0.623104,-5.12 0.39774,-5.49698 0.374944,-5.97858 -0.306576,-6.47691 -1.257191,-0.91928 -3.239037,-0.10848 -12.9661,5.30459 -2.904,1.61606 -5.469073,3.12176 -5.700164,3.346 -0.344992,0.33476 -0.01584,1.11766 1.839837,4.37611 1.242999,2.18262 3.664071,6.73551 5.380164,10.11752 3.038595,5.98836 3.107456,6.17212 2.634054,7.02902 -0.81584,1.47676 -2.423184,1.87511 -5.582816,1.38359 -1.473203,-0.22918 -3.489159,-0.33302 -4.479904,-0.23077 -5.505713,0.56824 -9.347998,6.55757 -7.669326,11.95489 0.826512,2.65742 3.675652,5.50604 6.334026,6.33285 4.736413,1.47314 8.437818,-0.44158 12.136919,-6.27834 1.336109,-2.10822 2.040634,-2.57504 3.680759,-2.43886 l 1.186451,0.0985 1.793229,4.48 c 0.986279,2.464 2.610048,6.856 3.608381,9.76 0.998333,2.904 1.877331,5.45601 1.953325,5.67113 0.147904,0.41868 11.354202,-3.24209 17.125066,-5.59425 z m 69.015186,-10.1554 c 1.92742,-0.57238 4.24927,-2.51494 5.44526,-4.55575 0.66237,-1.13025 0.88187,-1.99589 0.99304,-3.9161 0.23646,-4.08475 -1.11669,-6.27444 -5.83932,-9.44934 -2.92469,-1.96618 -3.70223,-3.08757 -3.18281,-4.59026 0.24869,-0.71943 0.93262,-1.10439 4.45124,-2.50545 2.28658,-0.91049 6.7867,-2.56649 10.00027,-3.68 l 5.84287,-2.02458 -0.20186,-0.96 c -0.24538,-1.16703 -3.76977,-11.32101 -5.38691,-15.52 -1.48297,-3.85061 -1.78783,-4.19135 -2.97347,-3.32345 -0.48592,0.3557 -1.31549,1.34501 -1.84349,2.19846 -1.70211,2.75126 -4.26091,5.11501 -6.4,5.91213 -3.81736,1.42253 -8.3545,0.43703 -11.23097,-2.43944 -3.74508,-3.74508 -3.81159,-10.10461 -0.1493,-14.27573 0.56926,-0.648356 1.98784,-1.647898 3.1524,-2.22121 2.32115,-1.142698 4.05358,-1.286061 9.04368,-0.748394 2.06461,0.222454 2.49405,0.182054 2.95401,-0.277907 0.50427,-0.504269 0.41559,-0.784288 -1.4065,-4.441332 -2.50213,-5.02192 -7.99029,-14.623133 -8.35875,-14.623133 -0.15603,0 -2.18462,1.063142 -4.50797,2.362541 -2.32334,1.299395 -6.49056,3.535082 -9.26048,4.968192 -4.89287,2.531482 -5.06226,2.592186 -5.9511,2.132551 -1.19779,-0.619402 -1.76709,-2.03537 -1.51698,-3.773057 0.56736,-3.941846 0.58724,-7.320762 0.0513,-8.724035 -1.22286,-3.202007 -4.84078,-5.597524 -8.46225,-5.603066 -2.65018,-0.0041 -4.10748,0.45408 -5.97492,1.878358 -2.05713,1.568957 -3.37247,3.971322 -3.57573,6.530817 -0.32428,4.083328 1.13652,6.721411 5.15864,9.316115 3.44993,2.225581 4.16767,3.284356 3.62486,5.347178 -0.19521,0.741834 -0.87571,1.089312 -6.06492,3.096861 -3.21478,1.243696 -7.86105,2.940804 -10.32505,3.771351 -2.464,0.83054 -4.59264,1.6088 -4.73032,1.72945 -0.46356,0.40626 6.32077,18.83793 7.29751,19.82587 0.77092,0.77978 2.00458,-0.20022 3.84738,-3.05627 2.6805,-4.15435 5.26745,-5.69278 9.58543,-5.70034 3.10101,-0.005 5.43269,0.93018 7.52,3.01749 2.08373,2.08373 3.02197,4.41848 3.02197,7.52 0,2.9885 -0.87502,5.27854 -2.85385,7.46887 -2.48627,2.75201 -7.09553,3.89533 -11.2829,2.79872 -1.09713,-0.28733 -2.35897,-0.431 -2.80409,-0.31929 -1.63133,0.40944 -1.53171,0.95305 1.13687,6.20412 3.32163,6.53612 6.68834,12.50242 7.15627,12.68199 0.20608,0.0791 2.16817,-0.87191 4.36021,-2.11331 2.19203,-1.2414 6.59314,-3.5794 9.78024,-5.19556 l 5.79473,-2.93848 0.872,0.57136 c 0.4796,0.31425 1.09232,1.09865 1.36159,1.74311 0.43996,1.05295 0.43923,1.48029 -0.007,4.21511 -0.31129,1.90724 -0.40529,3.52119 -0.25179,4.32336 1.07988,5.64344 6.5866,8.99613 12.09108,7.36148 z m -75.765346,-29.4262 c 5.028548,-2.54816 6.500685,-9.30608 3.021024,-13.86815 -0.460118,-0.60325 -2.036403,-1.87083 -3.502854,-2.81685 -3.905969,-2.51977 -4.644564,-4.41116 -2.492388,-6.38248 1.25314,-1.14783 5.446487,-2.84987 15.004379,-6.09013 2.992,-1.014337 5.47983,-1.872097 5.528515,-1.906139 0.127283,-0.08901 -3.484557,-10.118733 -5.446195,-15.123543 -2.221664,-5.668228 -2.942093,-5.882426 -5.610068,-1.667994 -1.552073,2.451715 -3.158797,4.069661 -5.032253,5.067402 -1.42567,0.759264 -1.948662,0.852131 -4.8,0.852352 -2.948301,2.27e-4 -3.334618,-0.07432 -4.911472,-0.947741 -0.941309,-0.521392 -2.335159,-1.641677 -3.097447,-2.489523 -4.493552,-4.997911 -2.873616,-13.323022 3.208919,-16.491159 1.396925,-0.727597 1.98584,-0.833156 4.64,-0.831668 1.672,9.6e-4 3.997027,0.118912 5.166723,0.26216 1.979159,0.242384 2.151994,0.213242 2.490893,-0.42 0.314704,-0.588032 -0.02314,-1.430326 -2.487145,-6.201139 -2.821693,-5.463332 -6.269534,-11.697022 -6.72595,-12.160503 -0.129888,-0.131901 -2.46104,0.999312 -5.180339,2.513811 -6.740628,3.754151 -14.235604,7.486007 -15.03473,7.486007 -0.362199,0 -1.031248,-0.372704 -1.486775,-0.828231 -0.813248,-0.813248 -0.823728,-0.88127 -0.579421,-3.76 0.531815,-6.266416 0.112333,-8.329338 -2.179648,-10.719005 -5.333091,-5.560397 -14.151252,-3.135501 -16.087905,4.423997 -0.404918,1.58055 -0.433088,2.275987 -0.146348,3.613008 0.672678,3.136586 2.332061,5.092375 6.735158,7.938237 2.825018,1.825895 3.387159,4.282561 1.189879,5.199972 -2.246186,0.937833 -10.230071,3.89592 -14.470448,5.361405 -2.461829,0.850816 -4.526091,1.69705 -4.587249,1.880525 -0.137681,0.413043 3.246852,10.371879 5.344181,15.725005 1.283419,3.275741 1.677656,3.983578 2.267627,4.07145 0.932077,0.138819 2.066445,-0.933593 3.317674,-3.13648 2.140099,-3.767815 4.877879,-5.524285 8.912192,-5.717776 2.997229,-0.143754 4.892679,0.419219 7.14163,2.121155 4.570691,3.458954 5.096089,10.535345 1.106329,14.900775 -1.053936,1.15317 -2.20007,1.99399 -3.534122,2.59268 -1.842534,0.82688 -2.169203,0.87284 -4.893273,0.6885 -1.605415,-0.10864 -3.572103,-0.28105 -4.37042,-0.38314 -1.136147,-0.14529 -1.613001,-0.0548 -2.194934,0.41639 l -0.743447,0.602 1.991744,3.98477 c 2.081402,4.16414 7.560759,13.95446 7.941655,14.18987 0.121178,0.0749 2.235456,-1.01553 4.698394,-2.42315 5.828205,-3.33094 12.485476,-6.58898 13.988813,-6.84608 1.037764,-0.17746 1.315265,-0.0791 2.160001,0.76563 0.83104,0.83104 0.96926,1.20709 0.96926,2.63699 0,0.91724 -0.168,2.57948 -0.373331,3.69385 -1.402141,7.60969 6.370148,13.65509 13.143172,10.22294 z M 106.14157,97.963499 c 7.86634,-2.771117 14.00359,-5.214944 14.64461,-5.831418 0.62145,-0.59766 0.62131,-0.608854 -0.019,-1.487136 -0.35485,-0.486716 -1.56129,-1.492592 -2.68097,-2.23528 -2.79852,-1.856259 -4.04434,-3.137987 -5.05984,-5.205664 -0.7355,-1.497568 -0.86635,-2.174819 -0.86635,-4.483997 0,-2.262103 0.13975,-3.016285 0.83018,-4.48 1.00439,-2.129322 2.99685,-4.180941 5.02746,-5.176733 2.18859,-1.073268 5.98862,-1.196394 8.44688,-0.273696 2.25454,0.846236 4.64606,2.949181 5.69941,5.011689 0.70438,1.37921 0.79361,1.945732 0.77471,4.91874 -0.0118,1.848 -0.1361,4.022915 -0.27634,4.833143 -0.28395,1.640585 0.14008,2.846857 1.00075,2.846857 0.97093,0 18.01654,-9.160106 18.01682,-9.682016 7e-5,-0.133111 -0.87964,-1.789111 -1.95492,-3.68 -3.09425,-5.441293 -8.28495,-15.596827 -8.28495,-16.20938 0,-0.30681 0.44089,-0.998727 0.97975,-1.537591 l 0.97976,-0.979757 2.62024,0.260224 c 4.69963,0.46674 6.95335,0.352064 8.45135,-0.430022 3.06683,-1.601146 5.02858,-4.364388 5.41504,-7.627405 0.41354,-3.491738 -1.71572,-7.399882 -5.03096,-9.234055 -1.5484,-0.856659 -2.02798,-0.959587 -4.45518,-0.95616 -2.16565,0.0032 -2.9838,0.144301 -4.01439,0.693027 -1.57793,0.840166 -3.48865,2.868941 -5.09039,5.404909 -0.65941,1.044023 -1.5086,2.147021 -1.88708,2.451107 -0.72942,0.586052 -2.32395,0.737485 -3.03289,0.288039 -0.48656,-0.308471 -3.36392,-7.613949 -5.83494,-14.814626 -0.92602,-2.698463 -1.77719,-5.015874 -1.8915,-5.149802 -0.34598,-0.405385 -18.57211,5.943934 -19.76881,6.886738 -1.04544,0.823628 0.38094,2.679408 3.14217,4.08808 4.20151,2.14345 6.45898,7.230781 5.27143,11.879415 -0.83757,3.278602 -2.4998,5.390746 -5.4536,6.929709 -2.15454,1.122534 -6.24598,1.197619 -8.53622,0.156656 -2.00852,-0.912915 -4.293081,-3.074637 -5.330886,-5.044243 -0.896067,-1.700612 -0.914138,-1.987853 -0.612448,-9.735876 0.120918,-3.105472 -0.19441,-3.163488 -4.796195,-0.882429 -3.574391,1.771789 -13.031588,7.047021 -14.258199,7.953236 -0.535281,0.395462 -0.421213,0.693084 1.693305,4.418125 4.218791,7.432029 7.750945,14.71041 7.542301,15.541709 -0.291283,1.16056 -1.86551,1.823392 -3.820438,1.608602 -7.404698,-0.813559 -9.048986,-0.541229 -11.579111,1.917773 -5.439821,5.286899 -3.031844,14.093031 4.377994,16.010609 4.203613,1.087843 7.554352,-0.504887 10.560848,-5.019966 0.990525,-1.487545 2.214525,-2.955872 2.72,-3.262947 1.080266,-0.656256 2.352714,-0.723466 3.06112,-0.161683 0.566416,0.449184 3.412765,7.613693 6.227815,15.675972 1.028564,2.945786 2.041814,5.357786 2.251674,5.36 0.20986,0.0022 2.36986,-0.6964 4.8,-1.552477 z"
         id="path7479" />
      <path
         style="fill:#999999;stroke-width:2.35172331;fill-opacity:0.60000002;stroke-dasharray:none;stroke:none"
         d="m 74.568698,130.34054 c -2.062381,-0.7513 -4.566557,-3.36638 -5.279744,-5.51358 -0.572554,-1.72381 -0.570656,-2.29735 0.0256,-7.73461 0.345181,-3.14776 -0.972125,-4.69033 -3.671136,-4.29891 -1.538487,0.22312 -8.169764,3.49293 -14.534791,7.16696 -1.894161,1.09335 -3.573953,1.90755 -3.732871,1.80933 -0.845005,-0.52223 -9.615754,-16.86632 -9.615754,-17.91871 0,-0.69784 1.38433,-0.93448 3.630646,-0.62062 1.083146,0.15133 3.051572,0.26885 4.374282,0.26115 2.101479,-0.0122 2.659738,-0.1498 4.424327,-1.09032 2.218774,-1.18259 3.784134,-2.802633 4.906279,-5.077667 0.597081,-1.210521 0.73238,-2.0136 0.735164,-4.363558 0.0029,-2.500816 -0.108294,-3.092349 -0.845004,-4.492849 -1.035668,-1.968812 -3.32001,-4.130896 -5.329479,-5.044243 -1.160778,-0.527597 -2.106013,-0.677226 -4.216215,-0.667411 -4.484442,0.02086 -6.791494,1.457011 -9.778435,6.087152 -1.725156,2.674208 -2.739754,3.436042 -3.502906,2.63024 -0.6646,-0.701741 -7.44744,-19.422945 -7.114481,-19.636558 0.0417,-0.02675 2.307821,-0.808617 5.035822,-1.737472 5.938701,-2.022064 13.639523,-4.990717 14.64,-5.643696 0.536848,-0.350381 0.72,-0.777677 0.72,-1.67977 0,-1.369475 -1.004445,-2.52639 -3.52,-4.054317 -1.976998,-1.200813 -4.083744,-3.271161 -4.861904,-4.777914 -0.949015,-1.837571 -1.104832,-4.511779 -0.395459,-6.786982 0.453228,-1.453652 0.984982,-2.275405 2.361165,-3.648868 2.762742,-2.757273 6.190649,-3.558361 9.631674,-2.250873 2.267773,0.861686 3.678592,2.030707 4.781702,3.962179 1.246224,2.182058 1.457488,3.843965 0.963303,7.57776 -0.50578,3.821367 -0.173853,5.218701 1.42023,5.978865 1.035098,0.493603 1.051581,0.487862 6.448519,-2.246461 2.975923,-1.507731 7.446829,-3.873152 9.935344,-5.25649 l 4.524577,-2.515162 2.768291,4.981434 c 1.52256,2.739789 3.662503,6.743226 4.755427,8.896529 2.304471,4.54032 2.289706,5.099565 -0.1312,4.969737 -0.770918,-0.04134 -2.956957,-0.165523 -4.857865,-0.275955 -3.410231,-0.198115 -3.483287,-0.187449 -5.492625,0.801744 -2.349261,1.156538 -3.761597,2.624909 -4.938822,5.134778 -0.705802,1.504791 -0.831364,2.21248 -0.825824,4.654602 0.006,2.662144 0.08916,3.033318 1.09888,4.906826 1.997248,3.70583 5.212851,5.617421 9.486851,5.639677 2.345732,0.01222 2.800676,-0.09302 4.783665,-1.106503 2.236473,-1.143036 3.684822,-2.637929 5.64848,-5.830003 1.071968,-1.742567 2.306275,-2.508045 2.949402,-1.829123 0.935475,0.987542 7.431894,18.808631 6.993482,19.184634 -0.13601,0.11665 -2.04729,0.826218 -4.24729,1.576818 -14.285159,4.87385 -16.960001,6.24147 -16.960001,8.67148 0,1.55983 1.236819,3.05954 3.64329,4.41766 3.312886,1.86968 5.31671,5.10138 5.31671,8.57461 0,3.10827 -2.182573,6.59805 -4.97375,7.95267 -1.700586,0.82533 -5.272893,0.95562 -7.177556,0.26179 z"
         id="path7475" />
      <path
         style="fill:#999999;stroke-width:1.44721431;fill-opacity:0.60000002;stroke:none;stroke-dasharray:none"
         d="m 153.19125,159.63702 c -4.72847,-0.70046 -8.02901,-5.23455 -7.40924,-10.17837 0.14471,-1.15425 0.27095,-3.08329 0.28055,-4.28675 0.016,-2.0112 -0.0551,-2.25052 -0.8804,-2.96 -0.49381,-0.42454 -1.18661,-0.77189 -1.53954,-0.77189 -0.74079,0 -8.57695,3.92337 -15.3129,7.66678 -2.54665,1.41527 -4.65814,2.57322 -4.69218,2.57322 -0.0341,0 -1.2816,-2.196 -2.77234,-4.88 -3.35364,-6.03808 -6.62519,-12.55086 -6.62519,-13.18899 0,-0.7233 1.51596,-0.95642 3.52337,-0.54179 2.82774,0.58405 6.11435,0.46741 8.13534,-0.28874 2.24151,-0.83866 4.43965,-2.9525 5.56333,-5.34997 0.73146,-1.56063 0.85796,-2.25513 0.85796,-4.71051 0,-2.50662 -0.11618,-3.11659 -0.89612,-4.70484 -1.13251,-2.30622 -3.52776,-4.48686 -5.91936,-5.38899 -2.52477,-0.95235 -6.24526,-0.775 -8.54452,0.40732 -1.92616,0.99047 -3.70626,2.71818 -4.84447,4.70189 -1.16591,2.03199 -2.34581,3.22462 -3.1902,3.22462 -0.61872,0 -0.93241,-0.55222 -2.33101,-4.10344 -1.94371,-4.93535 -5.47275,-14.79496 -5.47367,-15.2926 -3.2e-4,-0.19582 1.97935,-1.04204 4.39935,-1.880487 7.71777,-2.673955 15.90176,-5.966998 16.48,-6.631165 1.26603,-1.454169 0.2791,-3.632323 -2.40036,-5.297542 -2.9183,-1.813652 -4.29311,-3.153226 -5.256,-5.121303 -1.62851,-3.328547 -0.96714,-7.589703 1.59275,-10.262042 2.76713,-2.888685 7.22084,-3.656692 10.85537,-1.871923 3.61948,1.777385 5.30508,4.972861 4.90524,9.299101 -0.61813,6.688106 -0.64695,6.180675 0.41119,7.238819 0.52942,0.529418 1.2096,0.962576 1.51151,0.962576 0.59711,0 8.48917,-4.059062 14.86411,-7.644947 4.66828,-2.625895 3.71738,-3.033143 7.30675,3.129334 3.21008,5.511306 6.84623,12.813947 6.64345,13.342363 -0.27831,0.725267 -1.78865,0.89215 -4.00741,0.442793 -6.00394,-1.215955 -10.79804,0.893943 -13.1116,5.770463 -0.71005,1.49661 -0.83408,2.19098 -0.82886,4.64 0.005,2.49025 0.12065,3.09652 0.85235,4.48 3.99511,7.55386 14.6831,7.70212 18.88209,0.26193 1.22094,-2.1634 2.58281,-3.62193 3.38188,-3.62193 0.50358,0 0.91995,0.75702 2.13352,3.87908 2.77498,7.13898 5.63191,15.97895 5.21203,16.12718 -0.21341,0.0753 -2.76401,0.95379 -5.66801,1.95213 -2.904,0.99833 -7.296,2.6221 -9.76,3.60838 l -4.48,1.79323 -0.10078,1.22446 c -0.13328,1.61947 0.46275,2.45929 2.89999,4.08614 2.61746,1.74713 4.60854,3.66149 5.45978,5.2494 0.9588,1.78855 0.96204,5.48091 0.007,7.56773 -1.75149,3.82572 -5.83179,5.9837 -10.1144,5.34928 z"
         id="path7471" />
      <path
         style="fill:#777777;stroke-width:1.44721431;fill-opacity:1;stroke:none;stroke-dasharray:none"
         d="m 100.95368,99.110149 c -0.0763,-0.214579 -0.8565,-2.478144 -1.733845,-5.030144 C 97.11179,87.948158 93.99628,79.928266 93.323233,78.90107 c -0.426937,-0.651588 -0.798368,-0.821066 -1.799472,-0.821066 -1.579776,0 -3.087494,1.23959 -4.490643,3.692035 -3.355706,5.865162 -10.385242,7.077578 -14.893985,2.568836 -1.887574,-1.887578 -2.69913,-3.866263 -2.69913,-6.580871 0,-3.599818 1.972333,-6.873696 5.033898,-8.355773 1.781719,-0.862516 5.494269,-1.011031 8.501402,-0.340087 1.663092,0.371066 1.97777,0.353962 3.037472,-0.165094 2.246103,-1.100173 2.2249,-1.551239 -0.311737,-6.6317 -1.237767,-2.47904 -3.468266,-6.701878 -4.956663,-9.384083 -1.488397,-2.682208 -2.625021,-5.008049 -2.525833,-5.168538 0.259372,-0.419674 10.251539,-6.043479 14.537117,-8.181799 1.99961,-0.997722 3.822032,-1.742519 4.049824,-1.655104 0.731328,0.280634 0.842375,1.976922 0.314013,4.796605 -0.614102,3.277258 -0.334166,5.45008 1.023546,7.94464 2.621688,4.816913 8.926188,6.834356 13.779108,4.409322 2.21672,-1.107709 4.00032,-2.918794 4.99229,-5.069223 0.53633,-1.162662 0.68233,-2.095417 0.68233,-4.359168 0,-2.26375 -0.146,-3.196505 -0.68233,-4.359168 -0.97769,-2.119475 -2.77098,-3.962099 -5.28495,-5.430336 -2.1567,-1.259581 -3.33824,-2.667319 -2.87195,-3.421783 0.46532,-0.752904 18.86382,-7.323435 19.65325,-7.018632 0.21407,0.08265 0.94753,1.860196 1.6299,3.950098 1.77501,5.436285 5.57803,15.23568 6.12507,15.78272 0.25533,0.255325 0.98239,0.449536 1.6157,0.431588 1.38823,-0.03935 2.37022,-0.882727 3.66712,-3.149472 1.49263,-2.608849 4.34753,-5.11809 6.55237,-5.759057 3.31986,-0.96511 6.846,0.09549 9.26592,2.787024 1.83263,2.03832 2.54235,4.145287 2.34102,6.949825 -0.17861,2.488102 -0.96936,4.198534 -2.70077,5.841936 -2.57484,2.443965 -4.97711,3.064887 -9.09409,2.350579 -4.21943,-0.732086 -6.37302,0.06832 -6.37302,2.368599 0,0.773113 4.17377,9.067674 7.98875,15.876081 1.0848,1.936 1.99912,3.641334 2.03181,3.789635 0.0327,0.148298 -1.45256,1.136694 -3.30056,2.196435 -3.6419,2.088458 -14.16404,7.61393 -14.4992,7.61393 -0.11333,0 -0.43653,-0.35176 -0.71823,-0.781689 -0.47037,-0.717872 -0.46838,-0.996436 0.0243,-3.412109 1.26617,-6.207898 -0.85705,-11.035818 -5.86401,-13.333972 -2.58126,-1.184778 -6.17449,-1.189383 -8.74129,-0.0112 -2.31801,1.063987 -4.08314,2.674938 -5.26141,4.80184 -0.8728,1.575488 -1.12556,1.917103 -1.12556,5.036274 0,2.85073 0.29219,3.580514 0.89008,4.698127 1.14648,2.143056 2.29836,3.295129 5.10462,5.105472 1.89012,1.219334 2.71214,1.951043 2.86182,2.547414 0.1155,0.460186 0.0837,0.952144 -0.0706,1.093239 -0.42663,0.390073 -9.83278,4.004384 -15.04481,5.780957 -3.26368,1.112454 -4.6642,1.461197 -4.76209,1.185792 z"
         id="path7469"
         sodipodi:nodetypes="csssssssssssssssssssssssssssssssssssssscssssssscscc" />
      <path
         style="fill:#777777;stroke-width:1.44721431;fill-opacity:1;stroke:none;stroke-dasharray:none"
         d="m 69.969568,170.12718 c -2.657094,-7.7592 -5.286611,-14.3938 -5.884438,-14.84717 -0.728551,-0.55251 -2.194084,-0.50062 -3.127101,0.11072 -0.428701,0.28089 -1.356304,1.42409 -2.061338,2.54043 -1.756176,2.78071 -3.040755,4.17828 -4.780576,5.20108 -1.294682,0.76111 -1.810432,0.8673 -4.196113,0.86393 -2.199222,-0.003 -2.978761,-0.14137 -4.071501,-0.72217 -5.578521,-2.96501 -6.920838,-10.04446 -2.749964,-14.50346 2.571356,-2.74899 4.553625,-3.23564 10.993664,-2.69895 2.962224,0.24686 3.079354,0.231 3.973335,-0.53797 0.641021,-0.55138 0.921133,-1.08968 0.921133,-1.77016 0,-0.94318 -5.79843,-12.38206 -9.151038,-18.05276 l -1.423456,-2.40767 5.473914,-3.0728 c 13.350094,-7.4941 14.609722,-7.623 13.641015,-1.39587 -0.713901,4.58916 0.0099,7.48977 2.559101,10.25531 2.823815,3.06348 7.68728,4.23292 11.546413,2.77639 2.235412,-0.8437 4.424321,-2.94342 5.631822,-5.40235 0.776883,-1.58202 0.892374,-2.18416 0.871491,-4.5437 -0.01814,-2.0484 -0.192071,-3.09292 -0.704471,-4.23031 -0.898278,-1.99393 -2.949958,-4.17878 -5.055139,-5.38324 -2.151216,-1.23081 -3.44744,-2.7009 -3.044807,-3.45322 0.572052,-1.06889 1.539428,-1.59889 6.10849,-3.34671 4.721306,-1.80605 13.003115,-4.70652 13.438689,-4.70652 0.131888,0 1.064518,2.412 2.072517,5.36 2.40225,7.02567 5.56629,15.13514 6.18022,15.84 0.30486,0.35 0.94498,0.56 1.70704,0.56 1.49035,0 3.02852,-1.23528 4.30006,-3.45329 1.15004,-2.0061 2.89364,-3.81234 4.46148,-4.62178 1.82243,-0.94088 5.05342,-1.11791 7.22695,-0.39598 2.25556,0.74917 4.76787,3.21328 5.51663,5.41077 1.52182,4.46628 -0.43831,9.56937 -4.43733,11.55238 -1.36807,0.67839 -4.92857,0.81188 -9.10625,0.34142 -1.79163,-0.20175 -2.223,-0.14405 -3.11142,0.4162 -1.78975,1.12864 -1.70037,1.72599 1.04379,6.976 1.36102,2.60385 3.6242,6.7931 5.02929,9.30943 1.40508,2.51634 2.49605,4.6338 2.42437,4.70548 -0.0717,0.0717 -2.42886,1.44847 -5.23818,3.05953 -6.47458,3.71298 -12.53951,6.76379 -13.1951,6.63747 -0.85587,-0.16491 -1.03869,-1.76047 -0.50012,-4.36473 1.16842,-5.64989 -1.10258,-10.52553 -5.972635,-12.82272 -2.435344,-1.14874 -6.455165,-1.18219 -8.726365,-0.0726 -3.600148,1.75882 -5.726679,5.04711 -5.925322,9.16244 -0.221021,4.57887 1.690179,7.8761 6.036694,10.4146 3.914282,2.28607 3.824548,3.14659 -0.505008,4.84292 -2.577443,1.00985 -16.004656,5.70248 -16.31674,5.70248 -0.04496,0 -0.888121,-2.35478 -1.873696,-5.23283 z"
         id="path7465" />
    </g>
  </g>
</svg>
